%TF.GenerationSoftware,KiCad,Pcbnew,8.0.5*%
%TF.CreationDate,2024-09-29T17:59:16-05:00*%
%TF.ProjectId,pcb,7063622e-6b69-4636-9164-5f7063625858,rev?*%
%TF.SameCoordinates,Original*%
%TF.FileFunction,Copper,L1,Top*%
%TF.FilePolarity,Positive*%
%FSLAX46Y46*%
G04 Gerber Fmt 4.6, Leading zero omitted, Abs format (unit mm)*
G04 Created by KiCad (PCBNEW 8.0.5) date 2024-09-29 17:59:16*
%MOMM*%
%LPD*%
G01*
G04 APERTURE LIST*
G04 Aperture macros list*
%AMRoundRect*
0 Rectangle with rounded corners*
0 $1 Rounding radius*
0 $2 $3 $4 $5 $6 $7 $8 $9 X,Y pos of 4 corners*
0 Add a 4 corners polygon primitive as box body*
4,1,4,$2,$3,$4,$5,$6,$7,$8,$9,$2,$3,0*
0 Add four circle primitives for the rounded corners*
1,1,$1+$1,$2,$3*
1,1,$1+$1,$4,$5*
1,1,$1+$1,$6,$7*
1,1,$1+$1,$8,$9*
0 Add four rect primitives between the rounded corners*
20,1,$1+$1,$2,$3,$4,$5,0*
20,1,$1+$1,$4,$5,$6,$7,0*
20,1,$1+$1,$6,$7,$8,$9,0*
20,1,$1+$1,$8,$9,$2,$3,0*%
G04 Aperture macros list end*
%TA.AperFunction,ComponentPad*%
%ADD10C,1.524000*%
%TD*%
%TA.AperFunction,SMDPad,CuDef*%
%ADD11RoundRect,0.250000X-0.625000X0.312500X-0.625000X-0.312500X0.625000X-0.312500X0.625000X0.312500X0*%
%TD*%
%TA.AperFunction,ComponentPad*%
%ADD12RoundRect,0.250001X0.499999X-0.499999X0.499999X0.499999X-0.499999X0.499999X-0.499999X-0.499999X0*%
%TD*%
%TA.AperFunction,ComponentPad*%
%ADD13C,1.500000*%
%TD*%
%TA.AperFunction,SMDPad,CuDef*%
%ADD14RoundRect,0.243750X-0.456250X0.243750X-0.456250X-0.243750X0.456250X-0.243750X0.456250X0.243750X0*%
%TD*%
%TA.AperFunction,SMDPad,CuDef*%
%ADD15RoundRect,0.250000X1.000000X0.650000X-1.000000X0.650000X-1.000000X-0.650000X1.000000X-0.650000X0*%
%TD*%
%TA.AperFunction,SMDPad,CuDef*%
%ADD16RoundRect,0.250000X-0.250000X-0.475000X0.250000X-0.475000X0.250000X0.475000X-0.250000X0.475000X0*%
%TD*%
%TA.AperFunction,Conductor*%
%ADD17C,0.200000*%
%TD*%
G04 APERTURE END LIST*
D10*
%TO.P,U1,1,Vin-*%
%TO.N,GND*%
X110914000Y-100848000D03*
%TO.P,U1,2,Vin+*%
%TO.N,Net-(D1-K)*%
X110914000Y-98308000D03*
%TO.P,U1,3,RC*%
%TO.N,unconnected-(U1-RC-Pad3)*%
X110914000Y-95768000D03*
%TO.P,U1,5,NC*%
%TO.N,unconnected-(U1-NC-Pad5)*%
X110914000Y-90688000D03*
%TO.P,U1,6,Vout+*%
%TO.N,+12P*%
X110914000Y-88148000D03*
%TO.P,U1,7,Vout-*%
%TO.N,GNDD*%
X110914000Y-85608000D03*
%TO.P,U1,8,NC*%
%TO.N,unconnected-(U1-NC-Pad8)*%
X110914000Y-83068000D03*
%TD*%
D11*
%TO.P,R1,2*%
%TO.N,Net-(D2-A)*%
X106426000Y-111891000D03*
%TO.P,R1,1*%
%TO.N,Net-(D1-K)*%
X106426000Y-108966000D03*
%TD*%
D12*
%TO.P,J1,1,Pin_1*%
%TO.N,Net-(D1-A)*%
X90472000Y-99472000D03*
D13*
%TO.P,J1,2,Pin_2*%
%TO.N,GND*%
X90472000Y-96472000D03*
%TO.P,J1,3,Pin_3*%
%TO.N,unconnected-(J1-Pin_3-Pad3)*%
X90472000Y-93472000D03*
%TO.P,J1,4,Pin_4*%
%TO.N,unconnected-(J1-Pin_4-Pad4)*%
X93472000Y-99472000D03*
%TO.P,J1,5,Pin_5*%
%TO.N,+12P*%
X93472000Y-96472000D03*
%TO.P,J1,6,Pin_6*%
%TO.N,GNDD*%
X93472000Y-93472000D03*
%TD*%
D14*
%TO.P,D2,2,A*%
%TO.N,Net-(D2-A)*%
X114173000Y-111730000D03*
%TO.P,D2,1,K*%
%TO.N,GND*%
X114173000Y-109855000D03*
%TD*%
D15*
%TO.P,D1,2,A*%
%TO.N,Net-(D1-A)*%
X102616000Y-105410000D03*
%TO.P,D1,1,K*%
%TO.N,Net-(D1-K)*%
X106616000Y-105410000D03*
%TD*%
D16*
%TO.P,C1,2*%
%TO.N,GND*%
X111247000Y-109982000D03*
%TO.P,C1,1*%
%TO.N,Net-(D1-K)*%
X109347000Y-109982000D03*
%TD*%
D17*
%TO.N,GNDD*%
X101336000Y-85608000D02*
X110914000Y-85608000D01*
X93472000Y-93472000D02*
X101336000Y-85608000D01*
%TO.N,+12P*%
X101796000Y-88148000D02*
X110914000Y-88148000D01*
X93472000Y-96472000D02*
X101796000Y-88148000D01*
%TO.N,Net-(D1-A)*%
X95660001Y-105410000D02*
X102616000Y-105410000D01*
X90472000Y-100221999D02*
X95660001Y-105410000D01*
X90472000Y-99472000D02*
X90472000Y-100221999D01*
%TO.N,Net-(D1-K)*%
X106616000Y-102606000D02*
X110914000Y-98308000D01*
X106616000Y-105410000D02*
X106616000Y-102606000D01*
X106426000Y-105600000D02*
X106616000Y-105410000D01*
X106426000Y-108966000D02*
X106426000Y-105600000D01*
%TO.N,GND*%
X113919000Y-103853000D02*
X110914000Y-100848000D01*
X113919000Y-109982000D02*
X113919000Y-103853000D01*
X111247000Y-109982000D02*
X113919000Y-109982000D01*
%TO.N,Net-(D1-K)*%
X107442000Y-109982000D02*
X109347000Y-109982000D01*
X106426000Y-108966000D02*
X107442000Y-109982000D01*
%TO.N,Net-(D2-A)*%
X106460000Y-111857000D02*
X113919000Y-111857000D01*
X106426000Y-111891000D02*
X106460000Y-111857000D01*
%TO.N,GND*%
X90472000Y-96472000D02*
X91536000Y-97536000D01*
X111470000Y-97246000D02*
X111976000Y-97752000D01*
X91536000Y-97536000D02*
X110184105Y-97536000D01*
X110184105Y-97536000D02*
X110474105Y-97246000D01*
X110474105Y-97246000D02*
X111470000Y-97246000D01*
X111976000Y-99786000D02*
X110914000Y-100848000D01*
X111976000Y-97752000D02*
X111976000Y-99786000D01*
%TD*%
M02*
