%TF.GenerationSoftware,KiCad,Pcbnew,8.0.5*%
%TF.CreationDate,2024-09-29T17:59:16-05:00*%
%TF.ProjectId,pcb,7063622e-6b69-4636-9164-5f7063625858,rev?*%
%TF.SameCoordinates,Original*%
%TF.FileFunction,Legend,Top*%
%TF.FilePolarity,Positive*%
%FSLAX46Y46*%
G04 Gerber Fmt 4.6, Leading zero omitted, Abs format (unit mm)*
G04 Created by KiCad (PCBNEW 8.0.5) date 2024-09-29 17:59:16*
%MOMM*%
%LPD*%
G01*
G04 APERTURE LIST*
%ADD10C,0.150000*%
%ADD11C,0.120000*%
G04 APERTURE END LIST*
D10*
X104848819Y-110275666D02*
X104372628Y-110608999D01*
X104848819Y-110847094D02*
X103848819Y-110847094D01*
X103848819Y-110847094D02*
X103848819Y-110466142D01*
X103848819Y-110466142D02*
X103896438Y-110370904D01*
X103896438Y-110370904D02*
X103944057Y-110323285D01*
X103944057Y-110323285D02*
X104039295Y-110275666D01*
X104039295Y-110275666D02*
X104182152Y-110275666D01*
X104182152Y-110275666D02*
X104277390Y-110323285D01*
X104277390Y-110323285D02*
X104325009Y-110370904D01*
X104325009Y-110370904D02*
X104372628Y-110466142D01*
X104372628Y-110466142D02*
X104372628Y-110847094D01*
X104848819Y-109323285D02*
X104848819Y-109894713D01*
X104848819Y-109608999D02*
X103848819Y-109608999D01*
X103848819Y-109608999D02*
X103991676Y-109704237D01*
X103991676Y-109704237D02*
X104086914Y-109799475D01*
X104086914Y-109799475D02*
X104134533Y-109894713D01*
X87846819Y-96805333D02*
X88561104Y-96805333D01*
X88561104Y-96805333D02*
X88703961Y-96852952D01*
X88703961Y-96852952D02*
X88799200Y-96948190D01*
X88799200Y-96948190D02*
X88846819Y-97091047D01*
X88846819Y-97091047D02*
X88846819Y-97186285D01*
X88846819Y-95805333D02*
X88846819Y-96376761D01*
X88846819Y-96091047D02*
X87846819Y-96091047D01*
X87846819Y-96091047D02*
X87989676Y-96186285D01*
X87989676Y-96186285D02*
X88084914Y-96281523D01*
X88084914Y-96281523D02*
X88132533Y-96376761D01*
X116277819Y-111530594D02*
X115277819Y-111530594D01*
X115277819Y-111530594D02*
X115277819Y-111292499D01*
X115277819Y-111292499D02*
X115325438Y-111149642D01*
X115325438Y-111149642D02*
X115420676Y-111054404D01*
X115420676Y-111054404D02*
X115515914Y-111006785D01*
X115515914Y-111006785D02*
X115706390Y-110959166D01*
X115706390Y-110959166D02*
X115849247Y-110959166D01*
X115849247Y-110959166D02*
X116039723Y-111006785D01*
X116039723Y-111006785D02*
X116134961Y-111054404D01*
X116134961Y-111054404D02*
X116230200Y-111149642D01*
X116230200Y-111149642D02*
X116277819Y-111292499D01*
X116277819Y-111292499D02*
X116277819Y-111530594D01*
X115373057Y-110578213D02*
X115325438Y-110530594D01*
X115325438Y-110530594D02*
X115277819Y-110435356D01*
X115277819Y-110435356D02*
X115277819Y-110197261D01*
X115277819Y-110197261D02*
X115325438Y-110102023D01*
X115325438Y-110102023D02*
X115373057Y-110054404D01*
X115373057Y-110054404D02*
X115468295Y-110006785D01*
X115468295Y-110006785D02*
X115563533Y-110006785D01*
X115563533Y-110006785D02*
X115706390Y-110054404D01*
X115706390Y-110054404D02*
X116277819Y-110625832D01*
X116277819Y-110625832D02*
X116277819Y-110006785D01*
X103877905Y-108364819D02*
X103877905Y-107364819D01*
X103877905Y-107364819D02*
X104116000Y-107364819D01*
X104116000Y-107364819D02*
X104258857Y-107412438D01*
X104258857Y-107412438D02*
X104354095Y-107507676D01*
X104354095Y-107507676D02*
X104401714Y-107602914D01*
X104401714Y-107602914D02*
X104449333Y-107793390D01*
X104449333Y-107793390D02*
X104449333Y-107936247D01*
X104449333Y-107936247D02*
X104401714Y-108126723D01*
X104401714Y-108126723D02*
X104354095Y-108221961D01*
X104354095Y-108221961D02*
X104258857Y-108317200D01*
X104258857Y-108317200D02*
X104116000Y-108364819D01*
X104116000Y-108364819D02*
X103877905Y-108364819D01*
X105401714Y-108364819D02*
X104830286Y-108364819D01*
X105116000Y-108364819D02*
X105116000Y-107364819D01*
X105116000Y-107364819D02*
X105020762Y-107507676D01*
X105020762Y-107507676D02*
X104925524Y-107602914D01*
X104925524Y-107602914D02*
X104830286Y-107650533D01*
X110130333Y-108661580D02*
X110082714Y-108709200D01*
X110082714Y-108709200D02*
X109939857Y-108756819D01*
X109939857Y-108756819D02*
X109844619Y-108756819D01*
X109844619Y-108756819D02*
X109701762Y-108709200D01*
X109701762Y-108709200D02*
X109606524Y-108613961D01*
X109606524Y-108613961D02*
X109558905Y-108518723D01*
X109558905Y-108518723D02*
X109511286Y-108328247D01*
X109511286Y-108328247D02*
X109511286Y-108185390D01*
X109511286Y-108185390D02*
X109558905Y-107994914D01*
X109558905Y-107994914D02*
X109606524Y-107899676D01*
X109606524Y-107899676D02*
X109701762Y-107804438D01*
X109701762Y-107804438D02*
X109844619Y-107756819D01*
X109844619Y-107756819D02*
X109939857Y-107756819D01*
X109939857Y-107756819D02*
X110082714Y-107804438D01*
X110082714Y-107804438D02*
X110130333Y-107852057D01*
X111082714Y-108756819D02*
X110511286Y-108756819D01*
X110797000Y-108756819D02*
X110797000Y-107756819D01*
X110797000Y-107756819D02*
X110701762Y-107899676D01*
X110701762Y-107899676D02*
X110606524Y-107994914D01*
X110606524Y-107994914D02*
X110511286Y-108042533D01*
D11*
%TO.C,R1*%
X105516000Y-109701436D02*
X105516000Y-111155564D01*
X107336000Y-109701436D02*
X107336000Y-111155564D01*
%TO.C,J1*%
X87892000Y-103157000D02*
X87892000Y-101737000D01*
X93642000Y-103157000D02*
X87892000Y-103157000D01*
X95182000Y-103157000D02*
X95482000Y-103157000D01*
X95482000Y-103157000D02*
X95482000Y-89787000D01*
X87892000Y-101737000D02*
X88392000Y-101737000D01*
X88392000Y-101737000D02*
X88392000Y-91207000D01*
X87892000Y-91207000D02*
X87892000Y-89787000D01*
X88392000Y-91207000D02*
X87892000Y-91207000D01*
X87892000Y-89787000D02*
X93642000Y-89787000D01*
X95482000Y-89787000D02*
X95182000Y-89787000D01*
%TO.C,D2*%
X115133000Y-111792500D02*
X115133000Y-109107500D01*
X113213000Y-109107500D02*
X113213000Y-111792500D01*
X115133000Y-109107500D02*
X113213000Y-109107500D01*
%TO.C,D1*%
X108126000Y-103760000D02*
X102616000Y-103760000D01*
X108126000Y-107060000D02*
X102616000Y-107060000D01*
X108126000Y-107060000D02*
X108126000Y-103760000D01*
%TO.C,C1*%
X110035748Y-110717000D02*
X110558252Y-110717000D01*
X110035748Y-109247000D02*
X110558252Y-109247000D01*
%TD*%
M02*
