%TF.GenerationSoftware,KiCad,Pcbnew,8.0.4*%
%TF.CreationDate,2024-11-03T19:16:22-06:00*%
%TF.ProjectId,M1 Schematic,4d312053-6368-4656-9d61-7469632e6b69,rev?*%
%TF.SameCoordinates,Original*%
%TF.FileFunction,Legend,Top*%
%TF.FilePolarity,Positive*%
%FSLAX46Y46*%
G04 Gerber Fmt 4.6, Leading zero omitted, Abs format (unit mm)*
G04 Created by KiCad (PCBNEW 8.0.4) date 2024-11-03 19:16:22*
%MOMM*%
%LPD*%
G01*
G04 APERTURE LIST*
%ADD10C,0.150000*%
%ADD11C,0.100000*%
%ADD12C,0.120000*%
G04 APERTURE END LIST*
D10*
X154409580Y-107396666D02*
X154457200Y-107444285D01*
X154457200Y-107444285D02*
X154504819Y-107587142D01*
X154504819Y-107587142D02*
X154504819Y-107682380D01*
X154504819Y-107682380D02*
X154457200Y-107825237D01*
X154457200Y-107825237D02*
X154361961Y-107920475D01*
X154361961Y-107920475D02*
X154266723Y-107968094D01*
X154266723Y-107968094D02*
X154076247Y-108015713D01*
X154076247Y-108015713D02*
X153933390Y-108015713D01*
X153933390Y-108015713D02*
X153742914Y-107968094D01*
X153742914Y-107968094D02*
X153647676Y-107920475D01*
X153647676Y-107920475D02*
X153552438Y-107825237D01*
X153552438Y-107825237D02*
X153504819Y-107682380D01*
X153504819Y-107682380D02*
X153504819Y-107587142D01*
X153504819Y-107587142D02*
X153552438Y-107444285D01*
X153552438Y-107444285D02*
X153600057Y-107396666D01*
X154504819Y-106444285D02*
X154504819Y-107015713D01*
X154504819Y-106729999D02*
X153504819Y-106729999D01*
X153504819Y-106729999D02*
X153647676Y-106825237D01*
X153647676Y-106825237D02*
X153742914Y-106920475D01*
X153742914Y-106920475D02*
X153790533Y-107015713D01*
X160374819Y-107955594D02*
X159374819Y-107955594D01*
X159374819Y-107955594D02*
X159374819Y-107717499D01*
X159374819Y-107717499D02*
X159422438Y-107574642D01*
X159422438Y-107574642D02*
X159517676Y-107479404D01*
X159517676Y-107479404D02*
X159612914Y-107431785D01*
X159612914Y-107431785D02*
X159803390Y-107384166D01*
X159803390Y-107384166D02*
X159946247Y-107384166D01*
X159946247Y-107384166D02*
X160136723Y-107431785D01*
X160136723Y-107431785D02*
X160231961Y-107479404D01*
X160231961Y-107479404D02*
X160327200Y-107574642D01*
X160327200Y-107574642D02*
X160374819Y-107717499D01*
X160374819Y-107717499D02*
X160374819Y-107955594D01*
X159470057Y-107003213D02*
X159422438Y-106955594D01*
X159422438Y-106955594D02*
X159374819Y-106860356D01*
X159374819Y-106860356D02*
X159374819Y-106622261D01*
X159374819Y-106622261D02*
X159422438Y-106527023D01*
X159422438Y-106527023D02*
X159470057Y-106479404D01*
X159470057Y-106479404D02*
X159565295Y-106431785D01*
X159565295Y-106431785D02*
X159660533Y-106431785D01*
X159660533Y-106431785D02*
X159803390Y-106479404D01*
X159803390Y-106479404D02*
X160374819Y-107050832D01*
X160374819Y-107050832D02*
X160374819Y-106431785D01*
D11*
X169499800Y-100435237D02*
X169547419Y-100292380D01*
X169547419Y-100292380D02*
X169547419Y-100054285D01*
X169547419Y-100054285D02*
X169499800Y-99959047D01*
X169499800Y-99959047D02*
X169452180Y-99911428D01*
X169452180Y-99911428D02*
X169356942Y-99863809D01*
X169356942Y-99863809D02*
X169261704Y-99863809D01*
X169261704Y-99863809D02*
X169166466Y-99911428D01*
X169166466Y-99911428D02*
X169118847Y-99959047D01*
X169118847Y-99959047D02*
X169071228Y-100054285D01*
X169071228Y-100054285D02*
X169023609Y-100244761D01*
X169023609Y-100244761D02*
X168975990Y-100339999D01*
X168975990Y-100339999D02*
X168928371Y-100387618D01*
X168928371Y-100387618D02*
X168833133Y-100435237D01*
X168833133Y-100435237D02*
X168737895Y-100435237D01*
X168737895Y-100435237D02*
X168642657Y-100387618D01*
X168642657Y-100387618D02*
X168595038Y-100339999D01*
X168595038Y-100339999D02*
X168547419Y-100244761D01*
X168547419Y-100244761D02*
X168547419Y-100006666D01*
X168547419Y-100006666D02*
X168595038Y-99863809D01*
X169547419Y-99435237D02*
X168547419Y-99435237D01*
X168547419Y-99435237D02*
X168547419Y-99054285D01*
X168547419Y-99054285D02*
X168595038Y-98959047D01*
X168595038Y-98959047D02*
X168642657Y-98911428D01*
X168642657Y-98911428D02*
X168737895Y-98863809D01*
X168737895Y-98863809D02*
X168880752Y-98863809D01*
X168880752Y-98863809D02*
X168975990Y-98911428D01*
X168975990Y-98911428D02*
X169023609Y-98959047D01*
X169023609Y-98959047D02*
X169071228Y-99054285D01*
X169071228Y-99054285D02*
X169071228Y-99435237D01*
X169261704Y-98482856D02*
X169261704Y-98006666D01*
X169547419Y-98578094D02*
X168547419Y-98244761D01*
X168547419Y-98244761D02*
X169547419Y-97911428D01*
X169547419Y-97578094D02*
X168547419Y-97578094D01*
X168547419Y-97578094D02*
X169547419Y-97006666D01*
X169547419Y-97006666D02*
X168547419Y-97006666D01*
X168547419Y-96339999D02*
X168547419Y-96244761D01*
X168547419Y-96244761D02*
X168595038Y-96149523D01*
X168595038Y-96149523D02*
X168642657Y-96101904D01*
X168642657Y-96101904D02*
X168737895Y-96054285D01*
X168737895Y-96054285D02*
X168928371Y-96006666D01*
X168928371Y-96006666D02*
X169166466Y-96006666D01*
X169166466Y-96006666D02*
X169356942Y-96054285D01*
X169356942Y-96054285D02*
X169452180Y-96101904D01*
X169452180Y-96101904D02*
X169499800Y-96149523D01*
X169499800Y-96149523D02*
X169547419Y-96244761D01*
X169547419Y-96244761D02*
X169547419Y-96339999D01*
X169547419Y-96339999D02*
X169499800Y-96435237D01*
X169499800Y-96435237D02*
X169452180Y-96482856D01*
X169452180Y-96482856D02*
X169356942Y-96530475D01*
X169356942Y-96530475D02*
X169166466Y-96578094D01*
X169166466Y-96578094D02*
X168928371Y-96578094D01*
X168928371Y-96578094D02*
X168737895Y-96530475D01*
X168737895Y-96530475D02*
X168642657Y-96482856D01*
X168642657Y-96482856D02*
X168595038Y-96435237D01*
X168595038Y-96435237D02*
X168547419Y-96339999D01*
X168642657Y-95625713D02*
X168595038Y-95578094D01*
X168595038Y-95578094D02*
X168547419Y-95482856D01*
X168547419Y-95482856D02*
X168547419Y-95244761D01*
X168547419Y-95244761D02*
X168595038Y-95149523D01*
X168595038Y-95149523D02*
X168642657Y-95101904D01*
X168642657Y-95101904D02*
X168737895Y-95054285D01*
X168737895Y-95054285D02*
X168833133Y-95054285D01*
X168833133Y-95054285D02*
X168975990Y-95101904D01*
X168975990Y-95101904D02*
X169547419Y-95673332D01*
X169547419Y-95673332D02*
X169547419Y-95054285D01*
X169261704Y-94673332D02*
X169261704Y-94197142D01*
X169547419Y-94768570D02*
X168547419Y-94435237D01*
X168547419Y-94435237D02*
X169547419Y-94101904D01*
X168642657Y-93816189D02*
X168595038Y-93768570D01*
X168595038Y-93768570D02*
X168547419Y-93673332D01*
X168547419Y-93673332D02*
X168547419Y-93435237D01*
X168547419Y-93435237D02*
X168595038Y-93339999D01*
X168595038Y-93339999D02*
X168642657Y-93292380D01*
X168642657Y-93292380D02*
X168737895Y-93244761D01*
X168737895Y-93244761D02*
X168833133Y-93244761D01*
X168833133Y-93244761D02*
X168975990Y-93292380D01*
X168975990Y-93292380D02*
X169547419Y-93863808D01*
X169547419Y-93863808D02*
X169547419Y-93244761D01*
D10*
X150451905Y-105424819D02*
X150451905Y-104424819D01*
X150451905Y-104424819D02*
X150690000Y-104424819D01*
X150690000Y-104424819D02*
X150832857Y-104472438D01*
X150832857Y-104472438D02*
X150928095Y-104567676D01*
X150928095Y-104567676D02*
X150975714Y-104662914D01*
X150975714Y-104662914D02*
X151023333Y-104853390D01*
X151023333Y-104853390D02*
X151023333Y-104996247D01*
X151023333Y-104996247D02*
X150975714Y-105186723D01*
X150975714Y-105186723D02*
X150928095Y-105281961D01*
X150928095Y-105281961D02*
X150832857Y-105377200D01*
X150832857Y-105377200D02*
X150690000Y-105424819D01*
X150690000Y-105424819D02*
X150451905Y-105424819D01*
X151975714Y-105424819D02*
X151404286Y-105424819D01*
X151690000Y-105424819D02*
X151690000Y-104424819D01*
X151690000Y-104424819D02*
X151594762Y-104567676D01*
X151594762Y-104567676D02*
X151499524Y-104662914D01*
X151499524Y-104662914D02*
X151404286Y-104710533D01*
X137414819Y-93563333D02*
X138129104Y-93563333D01*
X138129104Y-93563333D02*
X138271961Y-93610952D01*
X138271961Y-93610952D02*
X138367200Y-93706190D01*
X138367200Y-93706190D02*
X138414819Y-93849047D01*
X138414819Y-93849047D02*
X138414819Y-93944285D01*
X138414819Y-92563333D02*
X138414819Y-93134761D01*
X138414819Y-92849047D02*
X137414819Y-92849047D01*
X137414819Y-92849047D02*
X137557676Y-92944285D01*
X137557676Y-92944285D02*
X137652914Y-93039523D01*
X137652914Y-93039523D02*
X137700533Y-93134761D01*
X150534819Y-107726666D02*
X150058628Y-108059999D01*
X150534819Y-108298094D02*
X149534819Y-108298094D01*
X149534819Y-108298094D02*
X149534819Y-107917142D01*
X149534819Y-107917142D02*
X149582438Y-107821904D01*
X149582438Y-107821904D02*
X149630057Y-107774285D01*
X149630057Y-107774285D02*
X149725295Y-107726666D01*
X149725295Y-107726666D02*
X149868152Y-107726666D01*
X149868152Y-107726666D02*
X149963390Y-107774285D01*
X149963390Y-107774285D02*
X150011009Y-107821904D01*
X150011009Y-107821904D02*
X150058628Y-107917142D01*
X150058628Y-107917142D02*
X150058628Y-108298094D01*
X150534819Y-106774285D02*
X150534819Y-107345713D01*
X150534819Y-107059999D02*
X149534819Y-107059999D01*
X149534819Y-107059999D02*
X149677676Y-107155237D01*
X149677676Y-107155237D02*
X149772914Y-107250475D01*
X149772914Y-107250475D02*
X149820533Y-107345713D01*
D12*
%TO.C,C1*%
X154995000Y-107491252D02*
X154995000Y-106968748D01*
X156465000Y-107491252D02*
X156465000Y-106968748D01*
%TO.C,D2*%
X157310000Y-105532500D02*
X157310000Y-108217500D01*
X159230000Y-105532500D02*
X157310000Y-105532500D01*
X159230000Y-108217500D02*
X159230000Y-105532500D01*
D11*
%TO.C,SPAN02A2*%
X158580000Y-78860000D02*
X158580000Y-100660000D01*
X158580000Y-100660000D02*
X167780000Y-100660000D01*
X167780000Y-78860000D02*
X158580000Y-78860000D01*
X167780000Y-100660000D02*
X167780000Y-78860000D01*
D12*
%TO.C,D1*%
X154700000Y-100820000D02*
X149190000Y-100820000D01*
X154700000Y-104120000D02*
X149190000Y-104120000D01*
X154700000Y-104120000D02*
X154700000Y-100820000D01*
%TO.C,J1*%
X139050000Y-86545000D02*
X144800000Y-86545000D01*
X139050000Y-87965000D02*
X139050000Y-86545000D01*
X139050000Y-98495000D02*
X139550000Y-98495000D01*
X139050000Y-99915000D02*
X139050000Y-98495000D01*
X139550000Y-87965000D02*
X139050000Y-87965000D01*
X139550000Y-98495000D02*
X139550000Y-87965000D01*
X144800000Y-99915000D02*
X139050000Y-99915000D01*
X146340000Y-99915000D02*
X146640000Y-99915000D01*
X146640000Y-86545000D02*
X146340000Y-86545000D01*
X146640000Y-99915000D02*
X146640000Y-86545000D01*
%TO.C,R1*%
X151010000Y-107015436D02*
X151010000Y-108469564D01*
X152830000Y-107015436D02*
X152830000Y-108469564D01*
%TD*%
M02*
