%TF.GenerationSoftware,KiCad,Pcbnew,8.0.4*%
%TF.CreationDate,2024-11-03T19:16:22-06:00*%
%TF.ProjectId,M1 Schematic,4d312053-6368-4656-9d61-7469632e6b69,rev?*%
%TF.SameCoordinates,Original*%
%TF.FileFunction,Copper,L1,Top*%
%TF.FilePolarity,Positive*%
%FSLAX46Y46*%
G04 Gerber Fmt 4.6, Leading zero omitted, Abs format (unit mm)*
G04 Created by KiCad (PCBNEW 8.0.4) date 2024-11-03 19:16:22*
%MOMM*%
%LPD*%
G01*
G04 APERTURE LIST*
G04 Aperture macros list*
%AMRoundRect*
0 Rectangle with rounded corners*
0 $1 Rounding radius*
0 $2 $3 $4 $5 $6 $7 $8 $9 X,Y pos of 4 corners*
0 Add a 4 corners polygon primitive as box body*
4,1,4,$2,$3,$4,$5,$6,$7,$8,$9,$2,$3,0*
0 Add four circle primitives for the rounded corners*
1,1,$1+$1,$2,$3*
1,1,$1+$1,$4,$5*
1,1,$1+$1,$6,$7*
1,1,$1+$1,$8,$9*
0 Add four rect primitives between the rounded corners*
20,1,$1+$1,$2,$3,$4,$5,0*
20,1,$1+$1,$4,$5,$6,$7,0*
20,1,$1+$1,$6,$7,$8,$9,0*
20,1,$1+$1,$8,$9,$2,$3,0*%
G04 Aperture macros list end*
%TA.AperFunction,SMDPad,CuDef*%
%ADD10RoundRect,0.250000X0.475000X-0.250000X0.475000X0.250000X-0.475000X0.250000X-0.475000X-0.250000X0*%
%TD*%
%TA.AperFunction,SMDPad,CuDef*%
%ADD11RoundRect,0.243750X-0.456250X0.243750X-0.456250X-0.243750X0.456250X-0.243750X0.456250X0.243750X0*%
%TD*%
%TA.AperFunction,SMDPad,CuDef*%
%ADD12RoundRect,0.381000X0.381000X-0.762000X0.381000X0.762000X-0.381000X0.762000X-0.381000X-0.762000X0*%
%TD*%
%TA.AperFunction,SMDPad,CuDef*%
%ADD13RoundRect,0.250000X1.000000X0.650000X-1.000000X0.650000X-1.000000X-0.650000X1.000000X-0.650000X0*%
%TD*%
%TA.AperFunction,ComponentPad*%
%ADD14RoundRect,0.250001X0.499999X-0.499999X0.499999X0.499999X-0.499999X0.499999X-0.499999X-0.499999X0*%
%TD*%
%TA.AperFunction,ComponentPad*%
%ADD15C,1.500000*%
%TD*%
%TA.AperFunction,SMDPad,CuDef*%
%ADD16RoundRect,0.250000X-0.625000X0.312500X-0.625000X-0.312500X0.625000X-0.312500X0.625000X0.312500X0*%
%TD*%
%TA.AperFunction,Conductor*%
%ADD17C,0.200000*%
%TD*%
G04 APERTURE END LIST*
D10*
%TO.P,C1,1*%
%TO.N,Net-(D1-K)*%
X155730000Y-108180000D03*
%TO.P,C1,2*%
%TO.N,GND*%
X155730000Y-106280000D03*
%TD*%
D11*
%TO.P,D2,1,K*%
%TO.N,GND*%
X158270000Y-106280000D03*
%TO.P,D2,2,A*%
%TO.N,Net-(D2-A)*%
X158270000Y-108155000D03*
%TD*%
D12*
%TO.P,SPAN02A2,1,Vin-*%
%TO.N,GND*%
X162080000Y-98660000D03*
%TO.P,SPAN02A2,2,Vin+*%
%TO.N,Net-(D1-K)*%
X162080000Y-96120000D03*
%TO.P,SPAN02A2,3,RC*%
%TO.N,unconnected-(SPAN02A2-RC-Pad3)*%
X162080000Y-93580000D03*
%TO.P,SPAN02A2,5,NC*%
%TO.N,unconnected-(SPAN02A2-NC-Pad5)*%
X162080000Y-88500000D03*
%TO.P,SPAN02A2,6,Vout+*%
%TO.N,+12P*%
X162080000Y-85960000D03*
%TO.P,SPAN02A2,7,Vout-*%
%TO.N,GNDD*%
X162080000Y-83420000D03*
%TO.P,SPAN02A2,8,NC*%
%TO.N,unconnected-(SPAN02A2-NC-Pad8)*%
X162080000Y-80880000D03*
%TD*%
D13*
%TO.P,D1,1,K*%
%TO.N,Net-(D1-K)*%
X153190000Y-102470000D03*
%TO.P,D1,2,A*%
%TO.N,Net-(D1-A)*%
X149190000Y-102470000D03*
%TD*%
D14*
%TO.P,J1,1,Pin_1*%
%TO.N,Net-(D1-A)*%
X141630000Y-96230000D03*
D15*
%TO.P,J1,2,Pin_2*%
%TO.N,GND*%
X141630000Y-93230000D03*
%TO.P,J1,3,Pin_3*%
%TO.N,unconnected-(J1-Pin_3-Pad3)*%
X141630000Y-90230000D03*
%TO.P,J1,4,Pin_4*%
%TO.N,unconnected-(J1-Pin_4-Pad4)*%
X144630000Y-96230000D03*
%TO.P,J1,5,Pin_5*%
%TO.N,+12P*%
X144630000Y-93230000D03*
%TO.P,J1,6,Pin_6*%
%TO.N,GNDD*%
X144630000Y-90230000D03*
%TD*%
D16*
%TO.P,R1,1*%
%TO.N,Net-(D1-K)*%
X151920000Y-106280000D03*
%TO.P,R1,2*%
%TO.N,Net-(D2-A)*%
X151920000Y-109205000D03*
%TD*%
D17*
%TO.N,Net-(D2-A)*%
X158270000Y-108820000D02*
X158270000Y-108155000D01*
X152805000Y-110090000D02*
X157000000Y-110090000D01*
X151920000Y-109205000D02*
X152805000Y-110090000D01*
X157000000Y-110090000D02*
X158270000Y-108820000D01*
%TO.N,Net-(D1-K)*%
X154460000Y-101200000D02*
X157000000Y-101200000D01*
X157000000Y-101200000D02*
X162080000Y-96120000D01*
X153820000Y-108180000D02*
X155730000Y-108180000D01*
X151920000Y-106280000D02*
X153820000Y-108180000D01*
X153190000Y-102470000D02*
X154460000Y-101200000D01*
%TO.N,GND*%
X162080000Y-102470000D02*
X158270000Y-106280000D01*
X155730000Y-106280000D02*
X158270000Y-106280000D01*
X162080000Y-98660000D02*
X162080000Y-102470000D01*
%TO.N,Net-(D1-A)*%
X141630000Y-96979999D02*
X147120001Y-102470000D01*
X141630000Y-96230000D02*
X141630000Y-96979999D01*
X147120001Y-102470000D02*
X149190000Y-102470000D01*
%TO.N,GNDD*%
X144630000Y-90230000D02*
X155270000Y-90230000D01*
X155270000Y-90230000D02*
X162080000Y-83420000D01*
%TO.N,+12P*%
X144630000Y-93230000D02*
X154810000Y-93230000D01*
X154810000Y-93230000D02*
X162080000Y-85960000D01*
%TD*%
%TA.AperFunction,Conductor*%
%TO.N,GND*%
G36*
X157458198Y-76321694D02*
G01*
X157525220Y-76341426D01*
X157570937Y-76394263D01*
X157582098Y-76444270D01*
X157702048Y-86895922D01*
X157683134Y-86963183D01*
X157665737Y-86985026D01*
X155057584Y-89593181D01*
X154996261Y-89626666D01*
X154969903Y-89629500D01*
X145800655Y-89629500D01*
X145733616Y-89609815D01*
X145699080Y-89576623D01*
X145591599Y-89423124D01*
X145550179Y-89381704D01*
X145436877Y-89268402D01*
X145257639Y-89142898D01*
X145257640Y-89142898D01*
X145257638Y-89142897D01*
X145158484Y-89096661D01*
X145059330Y-89050425D01*
X145059326Y-89050424D01*
X145059322Y-89050422D01*
X144847977Y-88993793D01*
X144630002Y-88974723D01*
X144629998Y-88974723D01*
X144484682Y-88987436D01*
X144412023Y-88993793D01*
X144412020Y-88993793D01*
X144200677Y-89050422D01*
X144200668Y-89050426D01*
X144002361Y-89142898D01*
X144002357Y-89142900D01*
X143823121Y-89268402D01*
X143668402Y-89423121D01*
X143542900Y-89602357D01*
X143542898Y-89602361D01*
X143450426Y-89800668D01*
X143450422Y-89800677D01*
X143393793Y-90012020D01*
X143393793Y-90012024D01*
X143374723Y-90229997D01*
X143374723Y-90230002D01*
X143393793Y-90447975D01*
X143393793Y-90447979D01*
X143450422Y-90659322D01*
X143450424Y-90659326D01*
X143450425Y-90659330D01*
X143496661Y-90758484D01*
X143542897Y-90857638D01*
X143542898Y-90857639D01*
X143668402Y-91036877D01*
X143823123Y-91191598D01*
X144002361Y-91317102D01*
X144200670Y-91409575D01*
X144412023Y-91466207D01*
X144594926Y-91482208D01*
X144629998Y-91485277D01*
X144630000Y-91485277D01*
X144630002Y-91485277D01*
X144658254Y-91482805D01*
X144847977Y-91466207D01*
X145059330Y-91409575D01*
X145257639Y-91317102D01*
X145436877Y-91191598D01*
X145591598Y-91036877D01*
X145699081Y-90883374D01*
X145753657Y-90839751D01*
X145800655Y-90830500D01*
X155183331Y-90830500D01*
X155183347Y-90830501D01*
X155190943Y-90830501D01*
X155349054Y-90830501D01*
X155349057Y-90830501D01*
X155501785Y-90789577D01*
X155551904Y-90760639D01*
X155638716Y-90710520D01*
X155750520Y-90598716D01*
X155750520Y-90598714D01*
X155760728Y-90588507D01*
X155760730Y-90588504D01*
X157513630Y-88835603D01*
X157574949Y-88802121D01*
X157644641Y-88807105D01*
X157700574Y-88848977D01*
X157724991Y-88914441D01*
X157725299Y-88921864D01*
X157730868Y-89407101D01*
X157711954Y-89474362D01*
X157694557Y-89496205D01*
X154597584Y-92593181D01*
X154536261Y-92626666D01*
X154509903Y-92629500D01*
X145800655Y-92629500D01*
X145733616Y-92609815D01*
X145699080Y-92576623D01*
X145591599Y-92423124D01*
X145591596Y-92423121D01*
X145436877Y-92268402D01*
X145298978Y-92171844D01*
X145257638Y-92142897D01*
X145103204Y-92070884D01*
X145059330Y-92050425D01*
X145059326Y-92050424D01*
X145059322Y-92050422D01*
X144847977Y-91993793D01*
X144630002Y-91974723D01*
X144629998Y-91974723D01*
X144504609Y-91985693D01*
X144412023Y-91993793D01*
X144412020Y-91993793D01*
X144200677Y-92050422D01*
X144200668Y-92050426D01*
X144002361Y-92142898D01*
X144002357Y-92142900D01*
X143823121Y-92268402D01*
X143668402Y-92423121D01*
X143542900Y-92602357D01*
X143542898Y-92602361D01*
X143450426Y-92800668D01*
X143450422Y-92800677D01*
X143393793Y-93012020D01*
X143393793Y-93012024D01*
X143374723Y-93229997D01*
X143374723Y-93230002D01*
X143393793Y-93447975D01*
X143393793Y-93447979D01*
X143450422Y-93659322D01*
X143450424Y-93659326D01*
X143450425Y-93659330D01*
X143488042Y-93740000D01*
X143542897Y-93857638D01*
X143542898Y-93857639D01*
X143668402Y-94036877D01*
X143823123Y-94191598D01*
X144002361Y-94317102D01*
X144200670Y-94409575D01*
X144412023Y-94466207D01*
X144594926Y-94482208D01*
X144629998Y-94485277D01*
X144630000Y-94485277D01*
X144630002Y-94485277D01*
X144658254Y-94482805D01*
X144847977Y-94466207D01*
X145059330Y-94409575D01*
X145257639Y-94317102D01*
X145436877Y-94191598D01*
X145591598Y-94036877D01*
X145699081Y-93883374D01*
X145753657Y-93839751D01*
X145800655Y-93830500D01*
X154723331Y-93830500D01*
X154723347Y-93830501D01*
X154730943Y-93830501D01*
X154889054Y-93830501D01*
X154889057Y-93830501D01*
X155041785Y-93789577D01*
X155091904Y-93760639D01*
X155178716Y-93710520D01*
X155290520Y-93598716D01*
X155290520Y-93598714D01*
X155300728Y-93588507D01*
X155300729Y-93588504D01*
X157542451Y-91346783D01*
X157603769Y-91313301D01*
X157673461Y-91318285D01*
X157729394Y-91360157D01*
X157753811Y-91425621D01*
X157754119Y-91433044D01*
X157846148Y-99451822D01*
X157827234Y-99519083D01*
X157809837Y-99540926D01*
X156787584Y-100563181D01*
X156726261Y-100596666D01*
X156699903Y-100599500D01*
X154539057Y-100599500D01*
X154380942Y-100599500D01*
X154228215Y-100640423D01*
X154228214Y-100640423D01*
X154228212Y-100640424D01*
X154228209Y-100640425D01*
X154178096Y-100669359D01*
X154178095Y-100669360D01*
X154134689Y-100694420D01*
X154091285Y-100719479D01*
X154091282Y-100719481D01*
X153979478Y-100831286D01*
X153777582Y-101033181D01*
X153716259Y-101066666D01*
X153689901Y-101069500D01*
X152139998Y-101069500D01*
X152139981Y-101069501D01*
X152037203Y-101080000D01*
X152037200Y-101080001D01*
X151870668Y-101135185D01*
X151870663Y-101135187D01*
X151721342Y-101227289D01*
X151597289Y-101351342D01*
X151505187Y-101500663D01*
X151505185Y-101500668D01*
X151488943Y-101549685D01*
X151450001Y-101667203D01*
X151450001Y-101667204D01*
X151450000Y-101667204D01*
X151439500Y-101769983D01*
X151439500Y-103170001D01*
X151439501Y-103170018D01*
X151450000Y-103272796D01*
X151450001Y-103272799D01*
X151505185Y-103439331D01*
X151505186Y-103439334D01*
X151597288Y-103588656D01*
X151721344Y-103712712D01*
X151870666Y-103804814D01*
X152037203Y-103859999D01*
X152139991Y-103870500D01*
X154240008Y-103870499D01*
X154342797Y-103859999D01*
X154509334Y-103804814D01*
X154658656Y-103712712D01*
X154782712Y-103588656D01*
X154874814Y-103439334D01*
X154929999Y-103272797D01*
X154940500Y-103170009D01*
X154940499Y-101924499D01*
X154960184Y-101857461D01*
X155012987Y-101811706D01*
X155064499Y-101800500D01*
X156913331Y-101800500D01*
X156913347Y-101800501D01*
X156920943Y-101800501D01*
X157079054Y-101800501D01*
X157079057Y-101800501D01*
X157231785Y-101759577D01*
X157281904Y-101730639D01*
X157368716Y-101680520D01*
X157480520Y-101568716D01*
X157480521Y-101568713D01*
X157657732Y-101391501D01*
X157719050Y-101358020D01*
X157788741Y-101363004D01*
X157844675Y-101404875D01*
X157869092Y-101470340D01*
X157869400Y-101477762D01*
X157869999Y-101529999D01*
X157870000Y-101530000D01*
X163526000Y-101530000D01*
X163593039Y-101549685D01*
X163638794Y-101602489D01*
X163650000Y-101654000D01*
X163650000Y-110772865D01*
X163630315Y-110839904D01*
X163577511Y-110885659D01*
X163526072Y-110896865D01*
X157237245Y-110900507D01*
X157170194Y-110880861D01*
X157124408Y-110828084D01*
X157114425Y-110758931D01*
X157143413Y-110695359D01*
X157202169Y-110657550D01*
X157205047Y-110656741D01*
X157231785Y-110649577D01*
X157281904Y-110620639D01*
X157368716Y-110570520D01*
X157480520Y-110458716D01*
X157480520Y-110458714D01*
X157490728Y-110448507D01*
X157490730Y-110448504D01*
X158638713Y-109300521D01*
X158638716Y-109300520D01*
X158750520Y-109188716D01*
X158750524Y-109188708D01*
X158753858Y-109184364D01*
X158810282Y-109143155D01*
X158839637Y-109136483D01*
X158877775Y-109132587D01*
X159042925Y-109077862D01*
X159191003Y-108986526D01*
X159314026Y-108863503D01*
X159405362Y-108715425D01*
X159460087Y-108550275D01*
X159470500Y-108448348D01*
X159470500Y-107861652D01*
X159460087Y-107759725D01*
X159405362Y-107594575D01*
X159405358Y-107594569D01*
X159405357Y-107594566D01*
X159314028Y-107446500D01*
X159314025Y-107446496D01*
X159191003Y-107323474D01*
X159190995Y-107323468D01*
X159189812Y-107322738D01*
X159189171Y-107322025D01*
X159185336Y-107318993D01*
X159185854Y-107318337D01*
X159143091Y-107270787D01*
X159131875Y-107201823D01*
X159159723Y-107137743D01*
X159185123Y-107115738D01*
X159185023Y-107115612D01*
X159187842Y-107113382D01*
X159189832Y-107111659D01*
X159190692Y-107111128D01*
X159313629Y-106988191D01*
X159404903Y-106840214D01*
X159404905Y-106840209D01*
X159459592Y-106675173D01*
X159469999Y-106573315D01*
X159470000Y-106573302D01*
X159470000Y-106530000D01*
X158144000Y-106530000D01*
X158076961Y-106510315D01*
X158031206Y-106457511D01*
X158020000Y-106406000D01*
X158020000Y-106030000D01*
X158520000Y-106030000D01*
X159470000Y-106030000D01*
X159470000Y-105986697D01*
X159469999Y-105986684D01*
X159459592Y-105884826D01*
X159404905Y-105719790D01*
X159404903Y-105719785D01*
X159313629Y-105571808D01*
X159190691Y-105448870D01*
X159042714Y-105357596D01*
X159042709Y-105357594D01*
X158877673Y-105302907D01*
X158775815Y-105292500D01*
X158520000Y-105292500D01*
X158520000Y-106030000D01*
X158020000Y-106030000D01*
X158020000Y-105292500D01*
X157764184Y-105292500D01*
X157662326Y-105302907D01*
X157497290Y-105357594D01*
X157497285Y-105357596D01*
X157349308Y-105448870D01*
X157226370Y-105571808D01*
X157135096Y-105719785D01*
X157135093Y-105719793D01*
X157131406Y-105730919D01*
X157091631Y-105788362D01*
X157027113Y-105815182D01*
X156958338Y-105802863D01*
X156907141Y-105755318D01*
X156895995Y-105730911D01*
X156889356Y-105710877D01*
X156889356Y-105710875D01*
X156797315Y-105561654D01*
X156673345Y-105437684D01*
X156524124Y-105345643D01*
X156524119Y-105345641D01*
X156357697Y-105290494D01*
X156357690Y-105290493D01*
X156254986Y-105280000D01*
X155980000Y-105280000D01*
X155980000Y-106406000D01*
X155960315Y-106473039D01*
X155907511Y-106518794D01*
X155856000Y-106530000D01*
X154505001Y-106530000D01*
X154505001Y-106579986D01*
X154515494Y-106682697D01*
X154570641Y-106849119D01*
X154570643Y-106849124D01*
X154662684Y-106998345D01*
X154786655Y-107122316D01*
X154786659Y-107122319D01*
X154789656Y-107124168D01*
X154791279Y-107125972D01*
X154792323Y-107126798D01*
X154792181Y-107126976D01*
X154836381Y-107176116D01*
X154847602Y-107245079D01*
X154819759Y-107309161D01*
X154789661Y-107335241D01*
X154786349Y-107337283D01*
X154786343Y-107337288D01*
X154662289Y-107461342D01*
X154662288Y-107461344D01*
X154625846Y-107520427D01*
X154625741Y-107520597D01*
X154573793Y-107567321D01*
X154520202Y-107579500D01*
X154120098Y-107579500D01*
X154053059Y-107559815D01*
X154032417Y-107543181D01*
X153321986Y-106832750D01*
X153288501Y-106771427D01*
X153286309Y-106732470D01*
X153295500Y-106642509D01*
X153295499Y-105980013D01*
X154505000Y-105980013D01*
X154505000Y-106030000D01*
X155480000Y-106030000D01*
X155480000Y-105280000D01*
X155205029Y-105280000D01*
X155205012Y-105280001D01*
X155102302Y-105290494D01*
X154935880Y-105345641D01*
X154935875Y-105345643D01*
X154786654Y-105437684D01*
X154662684Y-105561654D01*
X154570643Y-105710875D01*
X154570641Y-105710880D01*
X154515494Y-105877302D01*
X154515493Y-105877309D01*
X154505000Y-105980013D01*
X153295499Y-105980013D01*
X153295499Y-105917492D01*
X153284999Y-105814703D01*
X153229814Y-105648166D01*
X153137712Y-105498844D01*
X153013656Y-105374788D01*
X152876993Y-105290494D01*
X152864336Y-105282687D01*
X152864331Y-105282685D01*
X152856228Y-105280000D01*
X152697797Y-105227501D01*
X152697795Y-105227500D01*
X152595010Y-105217000D01*
X151244998Y-105217000D01*
X151244981Y-105217001D01*
X151142203Y-105227500D01*
X151142200Y-105227501D01*
X150975668Y-105282685D01*
X150975663Y-105282687D01*
X150826342Y-105374789D01*
X150702289Y-105498842D01*
X150610187Y-105648163D01*
X150610185Y-105648168D01*
X150598345Y-105683900D01*
X150555001Y-105814703D01*
X150555001Y-105814704D01*
X150555000Y-105814704D01*
X150544500Y-105917483D01*
X150544500Y-106642501D01*
X150544501Y-106642519D01*
X150555000Y-106745296D01*
X150555001Y-106745299D01*
X150589406Y-106849124D01*
X150610186Y-106911834D01*
X150702288Y-107061156D01*
X150826344Y-107185212D01*
X150975666Y-107277314D01*
X151142203Y-107332499D01*
X151244991Y-107343000D01*
X152082401Y-107342999D01*
X152149440Y-107362683D01*
X152170082Y-107379318D01*
X152724732Y-107933968D01*
X152758217Y-107995291D01*
X152753233Y-108064983D01*
X152711361Y-108120916D01*
X152645897Y-108145333D01*
X152624450Y-108145007D01*
X152595012Y-108142000D01*
X151244998Y-108142000D01*
X151244981Y-108142001D01*
X151142203Y-108152500D01*
X151142200Y-108152501D01*
X150975668Y-108207685D01*
X150975663Y-108207687D01*
X150826342Y-108299789D01*
X150702289Y-108423842D01*
X150610187Y-108573163D01*
X150610185Y-108573168D01*
X150590058Y-108633908D01*
X150555001Y-108739703D01*
X150555001Y-108739704D01*
X150555000Y-108739704D01*
X150544500Y-108842483D01*
X150544500Y-109567501D01*
X150544501Y-109567519D01*
X150555000Y-109670296D01*
X150555001Y-109670299D01*
X150610185Y-109836831D01*
X150610187Y-109836836D01*
X150645069Y-109893388D01*
X150702288Y-109986156D01*
X150826344Y-110110212D01*
X150975666Y-110202314D01*
X151142203Y-110257499D01*
X151244991Y-110268000D01*
X152082402Y-110267999D01*
X152149441Y-110287683D01*
X152170083Y-110304318D01*
X152320139Y-110454374D01*
X152320149Y-110454385D01*
X152324479Y-110458715D01*
X152324480Y-110458716D01*
X152436284Y-110570520D01*
X152523095Y-110620639D01*
X152523097Y-110620641D01*
X152573213Y-110649576D01*
X152573215Y-110649577D01*
X152609989Y-110659430D01*
X152669649Y-110695795D01*
X152700178Y-110758641D01*
X152691884Y-110828017D01*
X152647398Y-110881895D01*
X152580847Y-110903170D01*
X152577967Y-110903205D01*
X141712732Y-110909497D01*
X141707252Y-110909379D01*
X141316277Y-110892310D01*
X141305501Y-110891367D01*
X141216792Y-110879688D01*
X140920151Y-110840634D01*
X140909498Y-110838756D01*
X140530021Y-110754628D01*
X140519572Y-110751828D01*
X140148879Y-110634949D01*
X140138714Y-110631249D01*
X140113106Y-110620642D01*
X139992098Y-110570519D01*
X139779618Y-110482507D01*
X139769814Y-110477935D01*
X139425057Y-110298465D01*
X139415689Y-110293057D01*
X139087869Y-110084213D01*
X139079008Y-110078008D01*
X138770646Y-109841394D01*
X138762359Y-109834440D01*
X138475795Y-109571853D01*
X138468146Y-109564204D01*
X138205559Y-109277640D01*
X138198605Y-109269353D01*
X137961991Y-108960991D01*
X137955786Y-108952130D01*
X137899324Y-108863503D01*
X137746941Y-108624309D01*
X137741534Y-108614942D01*
X137577475Y-108299789D01*
X137562061Y-108270178D01*
X137557492Y-108260381D01*
X137408744Y-107901270D01*
X137405055Y-107891135D01*
X137288168Y-107520416D01*
X137285374Y-107509990D01*
X137201241Y-107130493D01*
X137199365Y-107119848D01*
X137198824Y-107115738D01*
X137148630Y-106734477D01*
X137147690Y-106723743D01*
X137130648Y-106333425D01*
X137130534Y-106327136D01*
X137131792Y-106158711D01*
X140389500Y-106158711D01*
X140389500Y-106401288D01*
X140421161Y-106641785D01*
X140483947Y-106876104D01*
X140576773Y-107100205D01*
X140576777Y-107100214D01*
X140592125Y-107126798D01*
X140698064Y-107310289D01*
X140698066Y-107310292D01*
X140698067Y-107310293D01*
X140845733Y-107502736D01*
X140845739Y-107502743D01*
X141017256Y-107674260D01*
X141017263Y-107674266D01*
X141052222Y-107701091D01*
X141209711Y-107821936D01*
X141419788Y-107943224D01*
X141643900Y-108036054D01*
X141878211Y-108098838D01*
X142045913Y-108120916D01*
X142118711Y-108130500D01*
X142118712Y-108130500D01*
X142361289Y-108130500D01*
X142409388Y-108124167D01*
X142601789Y-108098838D01*
X142836100Y-108036054D01*
X143060212Y-107943224D01*
X143270289Y-107821936D01*
X143462738Y-107674265D01*
X143634265Y-107502738D01*
X143781936Y-107310289D01*
X143903224Y-107100212D01*
X143996054Y-106876100D01*
X144058838Y-106641789D01*
X144090500Y-106401288D01*
X144090500Y-106158712D01*
X144058838Y-105918211D01*
X143996054Y-105683900D01*
X143903224Y-105459788D01*
X143781936Y-105249711D01*
X143634265Y-105057262D01*
X143634260Y-105057256D01*
X143462743Y-104885739D01*
X143462736Y-104885733D01*
X143270293Y-104738067D01*
X143270292Y-104738066D01*
X143270289Y-104738064D01*
X143060212Y-104616776D01*
X143060205Y-104616773D01*
X142836104Y-104523947D01*
X142601785Y-104461161D01*
X142361289Y-104429500D01*
X142361288Y-104429500D01*
X142118712Y-104429500D01*
X142118711Y-104429500D01*
X141878214Y-104461161D01*
X141643895Y-104523947D01*
X141419794Y-104616773D01*
X141419785Y-104616777D01*
X141209706Y-104738067D01*
X141017263Y-104885733D01*
X141017256Y-104885739D01*
X140845739Y-105057256D01*
X140845733Y-105057263D01*
X140698067Y-105249706D01*
X140576777Y-105459785D01*
X140576773Y-105459794D01*
X140483947Y-105683895D01*
X140421161Y-105918214D01*
X140389500Y-106158711D01*
X137131792Y-106158711D01*
X137210052Y-95679984D01*
X140379500Y-95679984D01*
X140379500Y-96780015D01*
X140390000Y-96882795D01*
X140390001Y-96882796D01*
X140445186Y-97049335D01*
X140445187Y-97049337D01*
X140537286Y-97198651D01*
X140537289Y-97198655D01*
X140661344Y-97322710D01*
X140661348Y-97322713D01*
X140810662Y-97414812D01*
X140810664Y-97414813D01*
X140810666Y-97414814D01*
X140977203Y-97469999D01*
X141079992Y-97480500D01*
X141229904Y-97480500D01*
X141296943Y-97500185D01*
X141317585Y-97516819D01*
X146635140Y-102834374D01*
X146635150Y-102834385D01*
X146639480Y-102838715D01*
X146639481Y-102838716D01*
X146751285Y-102950520D01*
X146838096Y-103000639D01*
X146838098Y-103000641D01*
X146876152Y-103022611D01*
X146888216Y-103029577D01*
X147040944Y-103070501D01*
X147040947Y-103070501D01*
X147206654Y-103070501D01*
X147206670Y-103070500D01*
X147317357Y-103070500D01*
X147384396Y-103090185D01*
X147430151Y-103142989D01*
X147440715Y-103181898D01*
X147450001Y-103272797D01*
X147450001Y-103272799D01*
X147505185Y-103439331D01*
X147505186Y-103439334D01*
X147597288Y-103588656D01*
X147721344Y-103712712D01*
X147870666Y-103804814D01*
X148037203Y-103859999D01*
X148139991Y-103870500D01*
X150240008Y-103870499D01*
X150342797Y-103859999D01*
X150509334Y-103804814D01*
X150658656Y-103712712D01*
X150782712Y-103588656D01*
X150874814Y-103439334D01*
X150929999Y-103272797D01*
X150940500Y-103170009D01*
X150940499Y-101769992D01*
X150929999Y-101667203D01*
X150874814Y-101500666D01*
X150782712Y-101351344D01*
X150658656Y-101227288D01*
X150509334Y-101135186D01*
X150342797Y-101080001D01*
X150342795Y-101080000D01*
X150240010Y-101069500D01*
X148139998Y-101069500D01*
X148139981Y-101069501D01*
X148037203Y-101080000D01*
X148037200Y-101080001D01*
X147870668Y-101135185D01*
X147870663Y-101135187D01*
X147721342Y-101227289D01*
X147597289Y-101351342D01*
X147505187Y-101500663D01*
X147505185Y-101500668D01*
X147450001Y-101667204D01*
X147448583Y-101673827D01*
X147446753Y-101673435D01*
X147423824Y-101729596D01*
X147366635Y-101769735D01*
X147296823Y-101772583D01*
X147239198Y-101739962D01*
X145679520Y-100180284D01*
X145646035Y-100118961D01*
X145651019Y-100049269D01*
X145692891Y-99993336D01*
X145743008Y-99970985D01*
X145791830Y-99961275D01*
X145930232Y-99903947D01*
X146054791Y-99820719D01*
X146160719Y-99714791D01*
X146243947Y-99590232D01*
X146301275Y-99451830D01*
X146330500Y-99304903D01*
X146330500Y-99155097D01*
X146301275Y-99008170D01*
X146243947Y-98869768D01*
X146243946Y-98869767D01*
X146243943Y-98869761D01*
X146160719Y-98745209D01*
X146160716Y-98745205D01*
X146054794Y-98639283D01*
X146054790Y-98639280D01*
X145930238Y-98556056D01*
X145930229Y-98556051D01*
X145791830Y-98498725D01*
X145791822Y-98498723D01*
X145644907Y-98469500D01*
X145644903Y-98469500D01*
X145495097Y-98469500D01*
X145495092Y-98469500D01*
X145348177Y-98498723D01*
X145348169Y-98498725D01*
X145209770Y-98556051D01*
X145209761Y-98556056D01*
X145085209Y-98639280D01*
X145085205Y-98639283D01*
X144979283Y-98745205D01*
X144979280Y-98745209D01*
X144896056Y-98869761D01*
X144896051Y-98869770D01*
X144838725Y-99008169D01*
X144838723Y-99008174D01*
X144829013Y-99056991D01*
X144796627Y-99118901D01*
X144735911Y-99153475D01*
X144666141Y-99149734D01*
X144619715Y-99120479D01*
X142782571Y-97283335D01*
X142749086Y-97222012D01*
X142754070Y-97152320D01*
X142764709Y-97130566D01*
X142814814Y-97049334D01*
X142869999Y-96882797D01*
X142880500Y-96780008D01*
X142880500Y-96229997D01*
X143374723Y-96229997D01*
X143374723Y-96230002D01*
X143393793Y-96447975D01*
X143393793Y-96447979D01*
X143450422Y-96659322D01*
X143450424Y-96659326D01*
X143450425Y-96659330D01*
X143496661Y-96758484D01*
X143542897Y-96857638D01*
X143542898Y-96857639D01*
X143668402Y-97036877D01*
X143823123Y-97191598D01*
X144002361Y-97317102D01*
X144200670Y-97409575D01*
X144412023Y-97466207D01*
X144594926Y-97482208D01*
X144629998Y-97485277D01*
X144630000Y-97485277D01*
X144630002Y-97485277D01*
X144658254Y-97482805D01*
X144847977Y-97466207D01*
X145059330Y-97409575D01*
X145257639Y-97317102D01*
X145436877Y-97191598D01*
X145591598Y-97036877D01*
X145717102Y-96857639D01*
X145809575Y-96659330D01*
X145866207Y-96447977D01*
X145885277Y-96230000D01*
X145866207Y-96012023D01*
X145809575Y-95800670D01*
X145717102Y-95602362D01*
X145717100Y-95602359D01*
X145717099Y-95602357D01*
X145591599Y-95423124D01*
X145579137Y-95410662D01*
X145436877Y-95268402D01*
X145257639Y-95142898D01*
X145257640Y-95142898D01*
X145257638Y-95142897D01*
X145158484Y-95096661D01*
X145059330Y-95050425D01*
X145059326Y-95050424D01*
X145059322Y-95050422D01*
X144847977Y-94993793D01*
X144630002Y-94974723D01*
X144629998Y-94974723D01*
X144484682Y-94987436D01*
X144412023Y-94993793D01*
X144412020Y-94993793D01*
X144200677Y-95050422D01*
X144200668Y-95050426D01*
X144002361Y-95142898D01*
X144002357Y-95142900D01*
X143823121Y-95268402D01*
X143668402Y-95423121D01*
X143542900Y-95602357D01*
X143542898Y-95602361D01*
X143450426Y-95800668D01*
X143450422Y-95800677D01*
X143393793Y-96012020D01*
X143393793Y-96012024D01*
X143374723Y-96229997D01*
X142880500Y-96229997D01*
X142880500Y-95679992D01*
X142869999Y-95577203D01*
X142814814Y-95410666D01*
X142727064Y-95268403D01*
X142722713Y-95261348D01*
X142722710Y-95261344D01*
X142598655Y-95137289D01*
X142598651Y-95137286D01*
X142449337Y-95045187D01*
X142449335Y-95045186D01*
X142294240Y-94993793D01*
X142282797Y-94990001D01*
X142282795Y-94990000D01*
X142180015Y-94979500D01*
X142180008Y-94979500D01*
X141079992Y-94979500D01*
X141079984Y-94979500D01*
X140977204Y-94990000D01*
X140977203Y-94990001D01*
X140810664Y-95045186D01*
X140810662Y-95045187D01*
X140661348Y-95137286D01*
X140661344Y-95137289D01*
X140537289Y-95261344D01*
X140537286Y-95261348D01*
X140445187Y-95410662D01*
X140445186Y-95410664D01*
X140390001Y-95577203D01*
X140390000Y-95577204D01*
X140379500Y-95679984D01*
X137210052Y-95679984D01*
X137228350Y-93229999D01*
X140375225Y-93229999D01*
X140375225Y-93230000D01*
X140394287Y-93447884D01*
X140394289Y-93447894D01*
X140450894Y-93659150D01*
X140450898Y-93659159D01*
X140543333Y-93857387D01*
X140586874Y-93919571D01*
X141138871Y-93367574D01*
X141154755Y-93426853D01*
X141221898Y-93543147D01*
X141316853Y-93638102D01*
X141433147Y-93705245D01*
X141492424Y-93721128D01*
X140940427Y-94273124D01*
X141002612Y-94316666D01*
X141200840Y-94409101D01*
X141200849Y-94409105D01*
X141412105Y-94465710D01*
X141412115Y-94465712D01*
X141629999Y-94484775D01*
X141630001Y-94484775D01*
X141847884Y-94465712D01*
X141847894Y-94465710D01*
X142059150Y-94409105D01*
X142059164Y-94409100D01*
X142257383Y-94316669D01*
X142257385Y-94316668D01*
X142319571Y-94273124D01*
X141767575Y-93721127D01*
X141826853Y-93705245D01*
X141943147Y-93638102D01*
X142038102Y-93543147D01*
X142105245Y-93426853D01*
X142121128Y-93367574D01*
X142673124Y-93919570D01*
X142716668Y-93857385D01*
X142716669Y-93857383D01*
X142809100Y-93659164D01*
X142809105Y-93659150D01*
X142865710Y-93447894D01*
X142865712Y-93447884D01*
X142884775Y-93230000D01*
X142884775Y-93229999D01*
X142865712Y-93012115D01*
X142865710Y-93012105D01*
X142809105Y-92800849D01*
X142809101Y-92800840D01*
X142716667Y-92602614D01*
X142716666Y-92602612D01*
X142673124Y-92540428D01*
X142673124Y-92540427D01*
X142121127Y-93092423D01*
X142105245Y-93033147D01*
X142038102Y-92916853D01*
X141943147Y-92821898D01*
X141826853Y-92754755D01*
X141767574Y-92738871D01*
X142319571Y-92186874D01*
X142257387Y-92143333D01*
X142059159Y-92050898D01*
X142059150Y-92050894D01*
X141847894Y-91994289D01*
X141847884Y-91994287D01*
X141630001Y-91975225D01*
X141629999Y-91975225D01*
X141412115Y-91994287D01*
X141412105Y-91994289D01*
X141200849Y-92050894D01*
X141200840Y-92050898D01*
X141002613Y-92143333D01*
X140940428Y-92186874D01*
X141492425Y-92738871D01*
X141433147Y-92754755D01*
X141316853Y-92821898D01*
X141221898Y-92916853D01*
X141154755Y-93033147D01*
X141138871Y-93092425D01*
X140586874Y-92540428D01*
X140543333Y-92602613D01*
X140450898Y-92800840D01*
X140450894Y-92800849D01*
X140394289Y-93012105D01*
X140394287Y-93012115D01*
X140375225Y-93229999D01*
X137228350Y-93229999D01*
X137250756Y-90229997D01*
X140374723Y-90229997D01*
X140374723Y-90230002D01*
X140393793Y-90447975D01*
X140393793Y-90447979D01*
X140450422Y-90659322D01*
X140450424Y-90659326D01*
X140450425Y-90659330D01*
X140496661Y-90758484D01*
X140542897Y-90857638D01*
X140542898Y-90857639D01*
X140668402Y-91036877D01*
X140823123Y-91191598D01*
X141002361Y-91317102D01*
X141200670Y-91409575D01*
X141412023Y-91466207D01*
X141594926Y-91482208D01*
X141629998Y-91485277D01*
X141630000Y-91485277D01*
X141630002Y-91485277D01*
X141658254Y-91482805D01*
X141847977Y-91466207D01*
X142059330Y-91409575D01*
X142257639Y-91317102D01*
X142436877Y-91191598D01*
X142591598Y-91036877D01*
X142717102Y-90857639D01*
X142809575Y-90659330D01*
X142866207Y-90447977D01*
X142885277Y-90230000D01*
X142866207Y-90012023D01*
X142809575Y-89800670D01*
X142717102Y-89602362D01*
X142717100Y-89602359D01*
X142717099Y-89602357D01*
X142591599Y-89423124D01*
X142550179Y-89381704D01*
X142436877Y-89268402D01*
X142257639Y-89142898D01*
X142257640Y-89142898D01*
X142257638Y-89142897D01*
X142158484Y-89096661D01*
X142059330Y-89050425D01*
X142059326Y-89050424D01*
X142059322Y-89050422D01*
X141847977Y-88993793D01*
X141630002Y-88974723D01*
X141629998Y-88974723D01*
X141484682Y-88987436D01*
X141412023Y-88993793D01*
X141412020Y-88993793D01*
X141200677Y-89050422D01*
X141200668Y-89050426D01*
X141002361Y-89142898D01*
X141002357Y-89142900D01*
X140823121Y-89268402D01*
X140668402Y-89423121D01*
X140542900Y-89602357D01*
X140542898Y-89602361D01*
X140450426Y-89800668D01*
X140450422Y-89800677D01*
X140393793Y-90012020D01*
X140393793Y-90012024D01*
X140374723Y-90229997D01*
X137250756Y-90229997D01*
X137273721Y-87155092D01*
X144809500Y-87155092D01*
X144809500Y-87304907D01*
X144838723Y-87451822D01*
X144838725Y-87451830D01*
X144896051Y-87590229D01*
X144896056Y-87590238D01*
X144979280Y-87714790D01*
X144979283Y-87714794D01*
X145085205Y-87820716D01*
X145085209Y-87820719D01*
X145209761Y-87903943D01*
X145209767Y-87903946D01*
X145209768Y-87903947D01*
X145348170Y-87961275D01*
X145495092Y-87990499D01*
X145495096Y-87990500D01*
X145495097Y-87990500D01*
X145644904Y-87990500D01*
X145644905Y-87990499D01*
X145791830Y-87961275D01*
X145930232Y-87903947D01*
X146054791Y-87820719D01*
X146160719Y-87714791D01*
X146243947Y-87590232D01*
X146301275Y-87451830D01*
X146330500Y-87304903D01*
X146330500Y-87155097D01*
X146301275Y-87008170D01*
X146243947Y-86869768D01*
X146243946Y-86869767D01*
X146243943Y-86869761D01*
X146160719Y-86745209D01*
X146160716Y-86745205D01*
X146054794Y-86639283D01*
X146054790Y-86639280D01*
X145930238Y-86556056D01*
X145930229Y-86556051D01*
X145791830Y-86498725D01*
X145791822Y-86498723D01*
X145644907Y-86469500D01*
X145644903Y-86469500D01*
X145495097Y-86469500D01*
X145495092Y-86469500D01*
X145348177Y-86498723D01*
X145348169Y-86498725D01*
X145209770Y-86556051D01*
X145209761Y-86556056D01*
X145085209Y-86639280D01*
X145085205Y-86639283D01*
X144979283Y-86745205D01*
X144979280Y-86745209D01*
X144896056Y-86869761D01*
X144896051Y-86869770D01*
X144838725Y-87008169D01*
X144838723Y-87008177D01*
X144809500Y-87155092D01*
X137273721Y-87155092D01*
X137318505Y-81158711D01*
X140389500Y-81158711D01*
X140389500Y-81401288D01*
X140421161Y-81641785D01*
X140483947Y-81876104D01*
X140576773Y-82100205D01*
X140576776Y-82100212D01*
X140698064Y-82310289D01*
X140698066Y-82310292D01*
X140698067Y-82310293D01*
X140845733Y-82502736D01*
X140845739Y-82502743D01*
X141017256Y-82674260D01*
X141017262Y-82674265D01*
X141209711Y-82821936D01*
X141419788Y-82943224D01*
X141643900Y-83036054D01*
X141878211Y-83098838D01*
X142058586Y-83122584D01*
X142118711Y-83130500D01*
X142118712Y-83130500D01*
X142361289Y-83130500D01*
X142409388Y-83124167D01*
X142601789Y-83098838D01*
X142836100Y-83036054D01*
X143060212Y-82943224D01*
X143270289Y-82821936D01*
X143462738Y-82674265D01*
X143634265Y-82502738D01*
X143781936Y-82310289D01*
X143903224Y-82100212D01*
X143996054Y-81876100D01*
X144058838Y-81641789D01*
X144090500Y-81401288D01*
X144090500Y-81158712D01*
X144058838Y-80918211D01*
X143996054Y-80683900D01*
X143903224Y-80459788D01*
X143781936Y-80249711D01*
X143634265Y-80057262D01*
X143634260Y-80057256D01*
X143462743Y-79885739D01*
X143462736Y-79885733D01*
X143270293Y-79738067D01*
X143270292Y-79738066D01*
X143270289Y-79738064D01*
X143060212Y-79616776D01*
X143060205Y-79616773D01*
X142836104Y-79523947D01*
X142601785Y-79461161D01*
X142361289Y-79429500D01*
X142361288Y-79429500D01*
X142118712Y-79429500D01*
X142118711Y-79429500D01*
X141878214Y-79461161D01*
X141643895Y-79523947D01*
X141419794Y-79616773D01*
X141419785Y-79616777D01*
X141209706Y-79738067D01*
X141017263Y-79885733D01*
X141017256Y-79885739D01*
X140845739Y-80057256D01*
X140845733Y-80057263D01*
X140698067Y-80249706D01*
X140576777Y-80459785D01*
X140576773Y-80459794D01*
X140483947Y-80683895D01*
X140421161Y-80918214D01*
X140389500Y-81158711D01*
X137318505Y-81158711D01*
X137319934Y-80967407D01*
X137320500Y-80959280D01*
X137320500Y-80892690D01*
X137320618Y-80887281D01*
X137337690Y-80496253D01*
X137338629Y-80485524D01*
X137389367Y-80100137D01*
X137391240Y-80089510D01*
X137475375Y-79710004D01*
X137478166Y-79699589D01*
X137595057Y-79328857D01*
X137598741Y-79318736D01*
X137747498Y-78959603D01*
X137752056Y-78949829D01*
X137931540Y-78605045D01*
X137936935Y-78595700D01*
X138145793Y-78267858D01*
X138151983Y-78259018D01*
X138388612Y-77950637D01*
X138395550Y-77942368D01*
X138658157Y-77655783D01*
X138665783Y-77648157D01*
X138952368Y-77385550D01*
X138960637Y-77378612D01*
X139269018Y-77141983D01*
X139277858Y-77135793D01*
X139605700Y-76926935D01*
X139615045Y-76921540D01*
X139959829Y-76742056D01*
X139969603Y-76737498D01*
X140328736Y-76588741D01*
X140338857Y-76585057D01*
X140709589Y-76468166D01*
X140720004Y-76465375D01*
X141099510Y-76381240D01*
X141110137Y-76379367D01*
X141495524Y-76328629D01*
X141506253Y-76327690D01*
X141897289Y-76310618D01*
X141902727Y-76310501D01*
X157458198Y-76321694D01*
G37*
%TD.AperFunction*%
%TD*%
M02*
